<?xml version="1.0"?>
<svg xmlns="http://www.w3.org/2000/svg" width="201" height="55" viewBox="0 0 201 55" fill="none">
<path fill-rule="evenodd" clip-rule="evenodd" d="M89.2641 7.42668L71.6612 17.969C71.1671 18.2655 70.8652 18.7975 70.8652 19.3712V53.6523C70.8652 54.1055 71.2342 54.4725 71.6898 54.4725H80.4568C80.912 54.4725 81.2809 54.1055 81.2809 53.6536V25.0086C81.2809 24.4234 81.5942 23.8826 82.1042 23.5899L89.2641 19.4785C89.7734 19.1859 90.4021 19.1859 90.9114 19.4785L98.0712 23.5899C98.5812 23.8826 98.8953 24.4234 98.8953 25.0086V53.6536C98.8953 54.1055 99.2636 54.4725 99.7186 54.4725H108.451C108.907 54.4725 109.276 54.1055 109.276 53.6523L109.276 19.37C109.276 18.7967 108.974 18.2655 108.48 17.969L90.9114 7.42668C90.6564 7.2804 90.3719 7.20721 90.0875 7.20721C89.803 7.20721 89.5187 7.2804 89.2641 7.42668Z" fill="#FF5253"/>
<path fill-rule="evenodd" clip-rule="evenodd" d="M25.9874 34.9621C25.9874 45.9951 34.5859 54.9392 45.1924 54.9392C52.9893 54.9392 59.6973 50.104 62.7054 43.1609C62.9236 42.6575 62.5617 42.0931 62.0103 42.0931H53.7744C53.2662 42.0931 52.7933 42.3458 52.5144 42.768C51.2003 44.7598 48.9754 46.2985 45.1924 46.2985C39.2522 46.2985 37.1403 42.5096 36.389 39.1199C36.285 38.6501 36.6513 38.2071 37.1344 38.2071H62.7954C63.5766 38.2071 64.2397 37.6194 64.3106 36.8461C64.3674 36.226 64.3974 35.5975 64.3974 34.9621C64.3974 23.9291 55.7989 14.9851 45.1924 14.9851C34.5859 14.9851 25.9874 23.9291 25.9874 34.9621ZM36.6759 29.7138C37.632 26.6504 39.8818 23.6238 45.1908 23.6238C50.4997 23.6238 52.7503 26.6504 53.705 29.7138C53.8556 30.1969 53.4829 30.6856 52.9749 30.6856H37.4073C36.8986 30.6856 36.5259 30.1969 36.6759 29.7138Z" fill="#212F49"/>
<path fill-rule="evenodd" clip-rule="evenodd" d="M115.747 34.9281C115.747 45.9802 124.756 54.9394 135.868 54.9394C146.979 54.9394 155.988 45.9802 155.988 34.9281C155.988 23.876 146.979 14.9169 135.868 14.9169C124.756 14.9169 115.747 23.876 115.747 34.9281ZM135.858 45.6958C128.73 45.6862 126.164 39.7638 126.164 34.9191C126.164 30.0708 128.734 24.142 135.874 24.142V24.1584C143.001 24.1667 145.568 30.0899 145.568 34.9344C145.568 39.7827 142.998 45.7116 135.858 45.7116V45.6958Z" fill="#212F49"/>
<path fill-rule="evenodd" clip-rule="evenodd" d="M187.932 6.00787C187.932 9.32595 190.637 12.0151 193.973 12.0151C197.309 12.0151 200.013 9.32595 200.013 6.00787C200.013 2.6897 197.309 0 193.973 0C190.637 0 187.932 2.6897 187.932 6.00787Z" fill="#212F49"/>
<path fill-rule="evenodd" clip-rule="evenodd" d="M189.565 16.8513C189.146 16.8513 188.805 17.1897 188.805 17.6068V54.1838C188.805 54.6008 189.146 54.9392 189.565 54.9392H198.382C198.802 54.9392 199.141 54.6008 199.141 54.1838V17.6068C199.141 17.1897 198.802 16.8513 198.382 16.8513H189.565Z" fill="#212F49"/>
<path fill-rule="evenodd" clip-rule="evenodd" d="M166.26 3.58659C163.977 5.90232 162.881 8.7848 162.881 12.3122V15.9755C162.881 16.3951 162.54 16.7354 162.117 16.7354H159.991C159.571 16.7354 159.232 17.073 159.232 17.4908V24.3045C159.232 24.7214 159.571 25.0598 159.991 25.0598H162.117C162.54 25.0598 162.881 25.4 162.881 25.8196V54.1839C162.881 54.6054 163.229 54.9449 163.652 54.9393L172.323 54.8155C172.738 54.8098 173.072 54.4726 173.072 54.06V25.8254C173.072 25.4083 173.412 25.0699 173.831 25.0699H179.029C179.449 25.0699 179.789 24.7316 179.789 24.3146V17.5003C179.789 17.0832 179.45 16.7449 179.03 16.7449H173.843C173.419 16.7449 173.077 16.4008 173.081 15.98L173.125 12.0177C173.125 12.0177 173.042 10.1984 174.671 9.24191C175.766 8.59886 179.349 8.56269 180.935 8.57982C181.358 8.58418 181.701 8.24656 181.701 7.82628C181.701 6.19876 181.702 2.4282 181.702 0.883714C181.701 0.49345 181.407 0.167095 181.015 0.131496C180.375 0.0727004 179.33 0.000366211 178.063 0.000366211C174.517 0.000271533 169.236 0.567299 166.26 3.58659Z" fill="#212F49"/>
<path fill-rule="evenodd" clip-rule="evenodd" d="M11.8817 19.4204C11.876 19.4255 11.8702 19.4299 11.8651 19.435C11.2587 19.9429 10.3358 19.5296 10.3358 18.7419V17.6044C10.3358 17.1872 9.99623 16.849 9.57692 16.849H0.759521C0.340212 16.849 0 17.1872 0 17.6044V54.1813C0 54.5984 0.340212 54.9367 0.759521 54.9367H9.57692C9.99623 54.9367 10.3358 54.5984 10.3358 54.1813V42.2902V36.4958C10.3358 33.376 10.586 29.5914 13.0369 27.748C15.2267 26.1002 19.3587 26.241 21.1114 26.3883C21.5537 26.4252 21.9297 26.0767 21.9297 25.6356V17.5453C21.9297 17.1447 21.6182 16.8122 21.2167 16.7912C20.9766 16.7786 20.6829 16.7689 20.3467 16.7689C18.2819 16.7689 14.6123 17.1337 11.8817 19.4204Z" fill="#212F49"/>
<mask id="mask0" mask-type="alpha" maskUnits="userSpaceOnUse" x="0" y="16" width="22" height="39">
<path fill-rule="evenodd" clip-rule="evenodd" d="M11.8817 19.4204C11.876 19.4255 11.8702 19.4299 11.8651 19.435C11.2587 19.9429 10.3358 19.5296 10.3358 18.7419V17.6044C10.3358 17.1872 9.99623 16.849 9.57692 16.849H0.759521C0.340212 16.849 0 17.1872 0 17.6044V54.1813C0 54.5984 0.340212 54.9367 0.759521 54.9367H9.57692C9.99623 54.9367 10.3358 54.5984 10.3358 54.1813V42.2902V36.4958C10.3358 33.376 10.586 29.5914 13.0369 27.748C15.2267 26.1002 19.3587 26.241 21.1114 26.3883C21.5537 26.4252 21.9297 26.0767 21.9297 25.6356V17.5453C21.9297 17.1447 21.6182 16.8122 21.2167 16.7912C20.9766 16.7786 20.6829 16.7689 20.3467 16.7689C18.2819 16.7689 14.6123 17.1337 11.8817 19.4204Z" fill="white"/>
</mask>
<g mask="url(#mask0)">
</g>
</svg>
